HIERARCHY
ROOT Hips
{
  OFFSET -69.4423 88.0299 51.6846
  CHANNELS 6 Xposition Yposition Zposition Zrotation Xrotation Yrotation
  JOINT Spine
  {
    OFFSET 12.0259 -0.162853 1.93176e-005
    CHANNELS 3 Zrotation Xrotation Yrotation
    JOINT Spine1
    {
      OFFSET 15.3169 -0.0121909 0
      CHANNELS 3 Zrotation Xrotation Yrotation
      JOINT Spine2
      {
        OFFSET 15.3176 -0.0121922 0
        CHANNELS 3 Zrotation Xrotation Yrotation
        JOINT Neck
        {
          OFFSET 19.9142 1.56236 0
          CHANNELS 3 Zrotation Xrotation Yrotation
          JOINT Head
          {
            OFFSET 6.92646 0 0
            CHANNELS 3 Zrotation Xrotation Yrotation
            End Site
            {
              OFFSET 20.7666 0 0
            }
          }
          JOINT LeftShoulder
          {
            OFFSET -4.94072 -1.14703 8.14416
            CHANNELS 3 Zrotation Xrotation Yrotation
            JOINT LeftArm
            {
              OFFSET 14.108 0 -2.74767e-005
              CHANNELS 3 Zrotation Xrotation Yrotation
              JOINT LeftForeArm
              {
                OFFSET 28.5802 -0.0783412 -0.0284884
                CHANNELS 3 Zrotation Xrotation Yrotation
                JOINT LeftHand
                {
                  OFFSET 27.092 0 0
                  CHANNELS 3 Zrotation Xrotation Yrotation
                  End Site
                  {
                    OFFSET 9.55928 -0.186424 0.145352
                  }
                }
              }
            }
          }
          JOINT RightShoulder
          {
            OFFSET -7.15748 -1.33027 -6.24935
            CHANNELS 3 Zrotation Xrotation Yrotation
            JOINT RightArm
            {
              OFFSET 14.108 0 1.82997e-005
              CHANNELS 3 Zrotation Xrotation Yrotation
              JOINT RightForeArm
              {
                OFFSET 28.5802 -0.0707221 2.30684e-005
                CHANNELS 3 Zrotation Xrotation Yrotation
                JOINT RightHand
                {
                  OFFSET 27.092 0 -1.30073e-005
                  CHANNELS 3 Zrotation Xrotation Yrotation
                  End Site
                  {
                    OFFSET 9.55929 -0.186417 -0.145354
                  }
                }
              }
            }
          }
        }
      }
    }
  }
  JOINT LeftUpLeg
  {
    OFFSET 0.00499725 -0.534999 8.837
    CHANNELS 3 Zrotation Xrotation Yrotation
    JOINT LeftLeg
    {
      OFFSET 39.9035 -0.00124594 0.000252775
      CHANNELS 3 Zrotation Xrotation Yrotation
      JOINT LeftFoot
      {
        OFFSET 39.6689 0 0
        CHANNELS 3 Zrotation Xrotation Yrotation
        JOINT LeftToe
        {
          OFFSET 10.1624 13.6296 0
          CHANNELS 3 Zrotation Xrotation Yrotation
          End Site
          {
            OFFSET 8.38147 0 0
          }
        }
      }
    }
  }
  JOINT RightUpLeg
  {
    OFFSET 0.00499725 -0.535 -8.837
    CHANNELS 3 Zrotation Xrotation Yrotation
    JOINT RightLeg
    {
      OFFSET 39.9036 -0.000268477 0.000106433
      CHANNELS 3 Zrotation Xrotation Yrotation
      JOINT RightFoot
      {
        OFFSET 39.6689 1.17892e-005 0
        CHANNELS 3 Zrotation Xrotation Yrotation
        JOINT RightToe
        {
          OFFSET 10.1624 13.6296 0
          CHANNELS 3 Zrotation Xrotation Yrotation
          End Site
          {
            OFFSET 8.38147 0 0
          }
        }
      }
    }
  }
}
MOTION
Frames:	8
Frame Time:	0.0333333
-47.685 88.8027 61.9922 -92.55 26.7264 175.321 1.10995 2.11678 1.18716 2.17799 4.25624 2.33558 2.17799 4.25621 2.33557 -14.925 0.109884 -10.8036 52.6743 2.52805 7.26584 -166.888 -1.36538 -94.8431 -25.0389 4.73773 84.8613 -34.5426 4.87548 -20.8366 93.5312 -89.0103 95.8955 -166.604 -3.70311 74.2879 -12.3423 -0.138244 -78.6934 -20.2543 -2.14334 12.6348 1.68548 78.5554 -1.53687 -27.5213 6.30115 -175.259 -16.3593 0.415497 -1.93438 -2.44347 -8.43432 -1.46376 90 -3.18055e-015 -1.59028e-015 11.0231 -2.72209 -174.971 -16.1604 -0.828767 0.151712 -0.600337 2.30653 0.0102963 90 -2.06736e-014 -9.54166e-015 
-45.688 88.5328 62.7055 -93.5169 26.1088 175.287 0.911388 2.17827 1.30473 1.77479 4.37707 2.57757 1.77479 4.37705 2.57756 -15.4124 0.471597 -10.7186 52.0995 3.08599 7.03329 -166.392 -1.17636 -94.6454 -19.881 5.91236 85.082 -30.6735 3.98778 -18.8061 20.3634 -87.1006 22.7613 -166.07 -3.3622 74.2588 -13.613 0.47085 -77.4378 -21.2764 -2.35847 13.2166 2.39718 81.0804 -2.26252 -27.0768 -0.800545 -175.125 -12.4358 0.330556 -2.11016 -1.84954 -16.2417 -2.66562 90 -4.77083e-015 1.59028e-015 12.0736 -2.85035 -174.68 -15.0249 -0.830605 0.162182 -1.71644 1.80265 0.0346704 90 -4.77083e-015 1.27222e-014 
-43.3927 88.2801 63.5204 -94.0119 24.8783 175.255 0.83509 2.09841 1.39526 1.62042 4.21677 2.76269 1.62041 4.21679 2.76268 -15.9556 0.713101 -10.8412 51.344 3.3495 6.94511 -165.84 -1.17983 -94.5998 -15.2016 6.92181 84.9027 -26.4905 3.12849 -16.5557 13.7254 -85.0476 16.2029 -165.509 -3.20918 74.0326 -13.8579 1.52455 -76.4029 -22.5192 -2.63289 13.9164 2.92768 82.3554 -2.79524 -27.3794 0.765802 -174.652 -13.431 0.330201 -2.07003 -2.4161 -15.2461 -2.71233 90 -1.59028e-015 7.95139e-016 14.0845 -2.95582 -174.406 -13.3976 -0.835157 0.170254 -2.92601 1.67158 0.141557 90 -7.95139e-015 -3.18055e-015 
-40.6092 87.7957 64.2891 -93.8882 23.8471 175.625 0.901181 2.0718 1.26968 1.75791 4.16331 2.50922 1.7579 4.16332 2.5092 -16.6655 0.767953 -11.1444 50.7099 3.79019 7.78017 -165.126 -1.50205 -94.6482 -10.6072 7.72553 83.9466 -22.2055 2.3478 -14.1773 10.0046 -82.0365 12.5202 -164.821 -3.35276 73.7118 -13.4617 2.68165 -76.2947 -24.1565 -3.00586 14.8084 3.35785 83.4402 -3.2392 -26.8415 5.68218 -174.867 -15.3829 0.367006 -1.96893 -4.02603 -11.5638 -2.45906 90 1.59028e-015 -0 15.6286 -2.36833 -175.042 -13.8921 -0.830525 0.150176 -3.73413 1.79896 0.263728 90 1.27222e-014 -0 
-37.3538 87.8976 64.5907 -93.6809 22.7099 177.016 0.913197 2.13091 0.851205 1.79645 4.27542 1.67019 1.79645 4.27539 1.67018 -16.4573 0.281335 -10.5034 49.8071 3.07732 8.22627 -165.309 -1.88082 -93.6552 -4.21573 7.65348 81.9511 -17.5087 1.60995 -11.5233 5.13404 -75.3362 7.51051 -165.091 -3.56724 74.4431 -12.2441 3.1838 -77.2704 -25.8521 -3.4223 15.7248 4.61923 84.8854 -4.51924 -25.6285 8.54585 -176.615 -15.3836 0.369463 -1.89444 -8.15229 -8.46815 -2.54275 90 -1.59028e-015 4.77083e-015 16.2093 -2.82475 -176.985 -15.9208 -0.799342 0.0780804 -6.42696 1.41389 0.455669 90 1.59028e-015 3.18055e-015 
-33.9442 88.1383 64.7807 -93.7925 20.8679 178.644 0.848942 2.01642 0.484031 1.68244 4.04022 0.939116 1.68244 4.04022 0.939116 -16.3396 0.00196035 -10.39 49.63 2.65209 8.49229 -165.346 -2.18314 -93.2549 5.60104 6.14367 80.1704 -13.4749 1.08276 -9.14298 3.1823 -65.293 5.45105 -165.279 -3.72522 74.6181 -11.2612 3.1737 -78.4557 -27.1904 -3.77191 16.4455 8.22541 86.9134 -8.1361 -23.3835 9.83433 -179.378 -14.4486 0.427262 -1.8478 -11.2122 -4.1683 -1.66375 90 -3.18055e-015 -1.59028e-015 14.2588 -4.01009 -179.012 -21.4264 -0.713997 -0.0864317 -11.0177 0.958386 0.726626 90 3.18055e-015 -0 
-30.6027 88.5147 65.0652 -93.3711 18.7499 178.999 0.905207 1.84296 0.462627 1.79691 3.69343 0.896898 1.7969 3.6934 0.896894 -16.536 -0.0251431 -10.5519 49.7321 2.30267 8.22462 -165.072 -2.31566 -93.29 15.3634 4.44616 79.8258 -11.487 0.856927 -7.89298 2.08393 -54.8884 4.22755 -165.132 -3.74945 74.4627 -10.8028 2.67014 -79.0471 -28.6119 -4.15506 17.2019 14.9479 88.2885 -14.8951 -20.9955 10.3676 178.961 -14.8041 0.500821 -1.77282 -11.3356 -2.56414 -1.16332 90 0 -3.18055e-015 11.217 -4.84013 179.926 -28.1571 -0.517197 -0.290964 -19.4883 0.711394 1.2672 90 3.18055e-015 -0 
-27.5313 88.778 65.4011 -92.7062 17.7183 -179.74 1.06648 1.8837 0.188851 2.12844 3.7716 0.342982 2.12845 3.77158 0.342971 -16.6676 -0.192948 -10.8554 49.2605 2.06921 8.64613 -164.985 -2.60501 -93.5171 15.608 4.9268 80.1243 -11.3763 0.848549 -7.82595 1.83389 -52.8478 4.10743 -165.049 -3.98748 74.2271 -11.2288 2.30495 -79.5232 -29.5206 -4.40346 17.6806 20.4538 88.7942 -20.3949 -17.3958 11.4086 176.942 -13.6897 0.575404 -1.71631 -11.1153 -1.26593 -0.745881 90 -3.18055e-015 1.59028e-015 5.96374 -4.15579 177.676 -38.2293 -0.297223 -0.465292 -26.7157 -1.30461 0.395164 90 -1.59028e-014 -3.18055e-015 
